<svg width="33" height="33" viewBox="0 0 33 33" fill="none" xmlns="http://www.w3.org/2000/svg">
<path d="M26.7928 16.7188C26.7928 18.7112 26.202 20.6589 25.095 22.3156C23.9881 23.9723 22.4147 25.2635 20.5739 26.026C18.7331 26.7885 16.7076 26.988 14.7534 26.5993C12.7992 26.2105 11.0042 25.2511 9.5953 23.8422C8.18642 22.4333 7.22696 20.6383 6.83825 18.6841C6.44954 16.7299 6.64904 14.7044 7.41152 12.8636C8.174 11.0228 9.46522 9.44942 11.1219 8.34246C12.7786 7.23551 14.7263 6.64468 16.7188 6.64468C19.3894 6.64859 21.9495 7.71123 23.8379 9.59963C25.7263 11.488 26.7889 14.0481 26.7928 16.7188ZM16.7188 4.27431C17.0331 4.27431 17.3345 4.14944 17.5568 3.92717C17.7791 3.70491 17.9039 3.40345 17.9039 3.08912V1.90394C17.9039 1.5896 17.7791 1.28815 17.5568 1.06588C17.3345 0.843617 17.0331 0.71875 16.7188 0.71875C16.4044 0.71875 16.103 0.843617 15.8807 1.06588C15.6584 1.28815 15.5336 1.5896 15.5336 1.90394V3.08912C15.5336 3.40345 15.6584 3.70491 15.8807 3.92717C16.103 4.14944 16.4044 4.27431 16.7188 4.27431ZM6.24468 7.91875C6.46872 8.13685 6.76904 8.25888 7.08171 8.25888C7.39438 8.25888 7.6947 8.13685 7.91875 7.91875C8.14039 7.69657 8.26487 7.39555 8.26487 7.08171C8.26487 6.76788 8.14039 6.46686 7.91875 6.24468L7.07431 5.40023C6.84885 5.19595 6.55348 5.0862 6.24934 5.09369C5.9452 5.10117 5.65558 5.22533 5.44046 5.44046C5.22533 5.65558 5.10117 5.9452 5.09369 6.24934C5.0862 6.55348 5.19595 6.84885 5.40023 7.07431L6.24468 7.91875ZM3.08912 15.5336H1.90394C1.5896 15.5336 1.28815 15.6584 1.06588 15.8807C0.843617 16.103 0.71875 16.4044 0.71875 16.7188C0.71875 17.0331 0.843617 17.3345 1.06588 17.5568C1.28815 17.7791 1.5896 17.9039 1.90394 17.9039H3.08912C3.40345 17.9039 3.70491 17.7791 3.92717 17.5568C4.14944 17.3345 4.27431 17.0331 4.27431 16.7188C4.27431 16.4044 4.14944 16.103 3.92717 15.8807C3.70491 15.6584 3.40345 15.5336 3.08912 15.5336ZM6.24468 25.5187L5.40023 26.3632C5.17859 26.5854 5.05411 26.8864 5.05411 27.2002C5.05411 27.5141 5.17859 27.8151 5.40023 28.0373C5.62774 28.2547 5.92996 28.3767 6.24468 28.378C6.55518 28.3775 6.85307 28.2551 7.07431 28.0373L7.91875 27.1928C8.12303 26.9674 8.23278 26.672 8.2253 26.3679C8.21781 26.0637 8.09365 25.7741 7.87852 25.559C7.6634 25.3439 7.37378 25.2197 7.06964 25.2122C6.7655 25.2047 6.47013 25.3145 6.24468 25.5187V25.5187ZM16.7188 29.1632C16.4044 29.1632 16.103 29.2881 15.8807 29.5103C15.6584 29.7326 15.5336 30.034 15.5336 30.3484V31.5336C15.5336 31.8479 15.6584 32.1494 15.8807 32.3716C16.103 32.5939 16.4044 32.7188 16.7188 32.7188C17.0331 32.7188 17.3345 32.5939 17.5568 32.3716C17.7791 32.1494 17.9039 31.8479 17.9039 31.5336V30.3484C17.9039 30.034 17.7791 29.7326 17.5568 29.5103C17.3345 29.2881 17.0331 29.1632 16.7188 29.1632ZM27.1928 25.5187C26.9674 25.3145 26.672 25.2047 26.3679 25.2122C26.0637 25.2197 25.7741 25.3439 25.559 25.559C25.3439 25.7741 25.2197 26.0637 25.2122 26.3679C25.2047 26.672 25.3145 26.9674 25.5187 27.1928L26.3632 28.0373C26.5844 28.2551 26.8823 28.3775 27.1928 28.378C27.5075 28.3767 27.8098 28.2547 28.0373 28.0373C28.2589 27.8151 28.3834 27.5141 28.3834 27.2002C28.3834 26.8864 28.2589 26.5854 28.0373 26.3632L27.1928 25.5187ZM31.5336 15.5336H30.3484C30.034 15.5336 29.7326 15.6584 29.5103 15.8807C29.2881 16.103 29.1632 16.4044 29.1632 16.7188C29.1632 17.0331 29.2881 17.3345 29.5103 17.5568C29.7326 17.7791 30.034 17.9039 30.3484 17.9039H31.5336C31.8479 17.9039 32.1494 17.7791 32.3716 17.5568C32.5939 17.3345 32.7188 17.0331 32.7188 16.7188C32.7188 16.4044 32.5939 16.103 32.3716 15.8807C32.1494 15.6584 31.8479 15.5336 31.5336 15.5336ZM26.3632 8.25949C26.5172 8.26085 26.6699 8.23141 26.8124 8.17289C26.9549 8.11438 27.0842 8.02797 27.1928 7.91875L28.0373 7.07431C28.1562 6.9665 28.2521 6.83565 28.319 6.68969C28.3858 6.54373 28.4223 6.3857 28.4263 6.2252C28.4303 6.06469 28.4016 5.90506 28.3419 5.75599C28.2823 5.60691 28.1931 5.4715 28.0795 5.35797C27.966 5.24445 27.8306 5.15517 27.6815 5.09556C27.5324 5.03595 27.3728 5.00725 27.2123 5.0112C27.0518 5.01515 26.8938 5.05167 26.7478 5.11855C26.6019 5.18542 26.471 5.28125 26.3632 5.40023L25.5187 6.24468C25.2971 6.46686 25.1726 6.76788 25.1726 7.08171C25.1726 7.39555 25.2971 7.69657 25.5187 7.91875C25.6291 8.02978 25.7608 8.11723 25.906 8.17581C26.0512 8.23438 26.2067 8.26285 26.3632 8.25949Z" fill="#FFD600"/>
</svg>
