<svg width="32" height="32" viewBox="0 0 32 32" fill="none" xmlns="http://www.w3.org/2000/svg">
<path d="M11.3775 3.25527C10.2577 5.68591 9.90986 8.40132 10.3807 11.0357C10.8515 13.6701 12.1184 16.097 14.0107 17.9893C15.903 19.8816 18.3299 21.1485 20.9643 21.6193C23.5987 22.0901 26.3141 21.7423 28.7447 20.6225C27.2989 27.1331 21.4909 32 14.5455 32C6.512 32 0 25.488 0 17.4545C0 10.5091 4.86691 4.70109 11.3775 3.25527V3.25527ZM23.5113 3.33236L24.7273 3.63636V5.09091L23.5113 5.39491C22.9999 5.52281 22.5328 5.78728 22.16 6.16004C21.7873 6.53281 21.5228 6.99986 21.3949 7.51127L21.0909 8.72727H19.6364L19.3324 7.51127C19.2045 6.99986 18.94 6.53281 18.5672 6.16004C18.1945 5.78728 17.7274 5.52281 17.216 5.39491L16 5.09091V3.63636L17.216 3.33236C17.7272 3.20423 18.1939 2.93966 18.5664 2.56691C18.9389 2.19416 19.2031 1.72724 19.3309 1.216L19.6364 0H21.0909L21.3949 1.216C21.5228 1.72742 21.7873 2.19447 22.16 2.56723C22.5328 2.94 22.9999 3.20446 23.5113 3.33236V3.33236ZM30.784 10.6051L32 10.9091V12.3636L30.784 12.6676C30.2726 12.7955 29.8055 13.06 29.4328 13.4328C29.06 13.8055 28.7955 14.2726 28.6676 14.784L28.3636 16H26.9091L26.6051 14.784C26.4772 14.2726 26.2127 13.8055 25.84 13.4328C25.4672 13.06 25.0001 12.7955 24.4887 12.6676L23.2727 12.3636V10.9091L24.4887 10.6051C25.0001 10.4772 25.4672 10.2127 25.84 9.83996C26.2127 9.46719 26.4772 9.00014 26.6051 8.48873L26.9091 7.27273H28.3636L28.6676 8.48873C28.7955 9.00014 29.06 9.46719 29.4328 9.83996C29.8055 10.2127 30.2726 10.4772 30.784 10.6051Z" fill="#DFE7EB"/>
</svg>
