<svg width="24" height="24" viewBox="0 0 24 24" fill="none" xmlns="http://www.w3.org/2000/svg">
<path d="M12.5602 2.31519C12.459 2.09443 12.4211 1.85077 12.4504 1.61041C12.4798 1.37006 12.5753 1.14211 12.7268 0.9511C12.8783 0.760089 13.08 0.613243 13.3101 0.526363C13.5403 0.439483 13.7902 0.415858 14.033 0.45803C16.2078 0.837803 18.2349 1.79561 19.8941 3.22732C21.5532 4.65904 22.7808 6.50988 23.4435 8.57865C24.1061 10.6474 24.1785 12.8549 23.6527 14.9612C23.1268 17.0676 22.0229 18.992 20.461 20.5255C18.899 22.059 16.9388 23.1427 14.7933 23.659C12.6479 24.1752 10.3994 24.1042 8.29219 23.4536C6.185 22.803 4.29978 21.5978 2.84147 19.9689C1.38316 18.3401 0.407562 16.3499 0.0207344 14.2147C-0.0222203 13.9764 0.00184374 13.731 0.0903373 13.505C0.178831 13.2791 0.328404 13.0811 0.522964 12.9324C0.717523 12.7837 0.949704 12.6899 1.19452 12.661C1.43934 12.6322 1.68753 12.6695 1.91239 12.7688C3.40249 13.4255 5.06073 13.622 6.66718 13.3322C8.27364 13.0424 9.75241 12.28 10.9074 11.1461C12.0623 10.0122 12.8389 8.56043 13.1341 6.98327C13.4293 5.40611 13.2291 3.77811 12.5602 2.31519V2.31519ZM3.28046 6.49348L3.36638 6.67801C3.7327 7.42103 4.30926 8.04474 5.02712 8.47454L5.16138 8.5523C5.17532 8.56015 5.18691 8.57147 5.19497 8.58513C5.20303 8.59878 5.20728 8.61429 5.20728 8.63007C5.20728 8.64585 5.20303 8.66136 5.19497 8.67501C5.18691 8.68867 5.17532 8.69999 5.16138 8.70784L5.02712 8.78429C4.30907 9.21444 3.73248 9.83862 3.36638 10.5821L3.28046 10.7667C3.27301 10.7833 3.26079 10.7974 3.2453 10.8074C3.2298 10.8173 3.2117 10.8226 3.19319 10.8226C3.17468 10.8226 3.15658 10.8173 3.14108 10.8074C3.12559 10.7974 3.11337 10.7833 3.10592 10.7667L3.02 10.5821C2.6539 9.83862 2.07731 9.21444 1.35926 8.78429L1.22501 8.70784C1.21106 8.69999 1.19947 8.68867 1.19141 8.67501C1.18335 8.66136 1.1791 8.64585 1.1791 8.63007C1.1791 8.61429 1.18335 8.59878 1.19141 8.58513C1.19947 8.57147 1.21106 8.56015 1.22501 8.5523L1.35926 8.47454C2.07682 8.04419 2.65292 7.42002 3.01866 6.67669L3.10458 6.49216C3.11203 6.47553 3.12424 6.46138 3.13974 6.45145C3.15524 6.44152 3.17334 6.43623 3.19185 6.43623C3.21035 6.43623 3.22846 6.44152 3.24396 6.45145C3.25945 6.46138 3.27167 6.47553 3.27911 6.49216L3.28046 6.49348ZM7.08257 0.0889698C7.13627 -0.0296566 7.30543 -0.0296566 7.35914 0.0889698L7.49608 0.381581C8.079 1.56566 8.99728 2.55964 10.1409 3.24443L10.3517 3.36569C10.3744 3.378 10.3932 3.39605 10.4064 3.41796C10.4196 3.43986 10.4265 3.46482 10.4265 3.49025C10.4265 3.51568 10.4196 3.54064 10.4064 3.56255C10.3932 3.58445 10.3744 3.6025 10.3517 3.61481L10.1396 3.73607C8.90112 4.47812 7.92955 5.58126 7.36048 6.89153C7.34865 6.91804 7.3292 6.9406 7.30453 6.95643C7.27985 6.97227 7.25101 6.9807 7.22152 6.9807C7.19204 6.9807 7.1632 6.97227 7.13852 6.95643C7.11385 6.9406 7.0944 6.91804 7.08257 6.89153L6.94563 6.59892C6.36271 5.41484 5.44443 4.42087 4.3008 3.73607L4.08867 3.61481C4.06601 3.6025 4.04712 3.58445 4.03397 3.56255C4.02081 3.54064 4.01387 3.51568 4.01387 3.49025C4.01387 3.46482 4.02081 3.43986 4.03397 3.41796C4.04712 3.39605 4.06601 3.378 4.08867 3.36569L4.3008 3.24443C5.44443 2.55964 6.36271 1.56566 6.94563 0.381581L7.08257 0.0889698V0.0889698Z" fill="#DFE7EB"/>
</svg>
