<svg  viewBox="0 0 22 24"  xmlns="http://www.w3.org/2000/svg">
<path d="M3.00016 23.9998C2.26683 23.9998 1.63927 23.7389 1.1175 23.2172C0.594829 22.6945 0.333496 22.0665 0.333496 21.3332V9.33317C0.333496 8.91095 0.428163 8.51095 0.617496 8.13317C0.80594 7.75539 1.06683 7.44428 1.40016 7.19984L9.40016 1.19984C9.64461 1.02206 9.90016 0.888726 10.1668 0.799837C10.4335 0.710948 10.7113 0.666504 11.0002 0.666504C11.2891 0.666504 11.5668 0.710948 11.8335 0.799837C12.1002 0.888726 12.3557 1.02206 12.6002 1.19984L20.6002 7.19984C20.9335 7.44428 21.1948 7.75539 21.3842 8.13317C21.5726 8.51095 21.6668 8.91095 21.6668 9.33317V21.3332C21.6668 22.0665 21.4059 22.6945 20.8842 23.2172C20.3615 23.7389 19.7335 23.9998 19.0002 23.9998H13.6668V14.6665H8.3335V23.9998H3.00016Z" />
</svg>
