<svg  viewBox="0 0 30 22"  xmlns="http://www.w3.org/2000/svg">
<path d="M19.9999 11C18.7149 11 17.4724 10.4263 16.4999 9.385C15.5543 8.36938 14.9768 7.015 14.8749 5.5725C14.7662 4.03375 15.2356 2.61875 16.1962 1.5875C17.1568 0.55625 18.4999 0 19.9999 0C21.4893 0 22.8362 0.56625 23.7937 1.595C24.7606 2.63375 25.2312 4.04625 25.1224 5.57187C25.0181 7.01625 24.4412 8.37 23.4974 9.38437C22.5274 10.4262 21.2856 11 19.9999 11ZM28.2393 22H11.7612C11.4962 22.0014 11.2345 21.942 10.9961 21.8264C10.7578 21.7108 10.5491 21.542 10.3862 21.3331C10.2134 21.1066 10.094 20.844 10.0371 20.5649C9.98017 20.2857 9.98712 19.9973 10.0574 19.7213C10.5837 17.6081 11.8874 15.8556 13.8274 14.6537C15.5493 13.5875 17.7412 13 19.9999 13C22.3031 13 24.4374 13.5625 26.1693 14.6281C28.1137 15.8237 29.4193 17.5863 29.9431 19.725C30.0125 20.0013 30.0187 20.2897 29.9611 20.5687C29.9035 20.8477 29.7837 21.11 29.6106 21.3363C29.4478 21.5442 29.2396 21.7121 29.0019 21.8272C28.7642 21.9422 28.5034 22.0014 28.2393 22V22ZM8.18743 11.25C5.98805 11.25 4.0543 9.205 3.87493 6.69188C3.78618 5.40438 4.18743 4.21375 4.99993 3.34062C5.80368 2.47625 6.93743 2 8.18743 2C9.43743 2 10.5624 2.47875 11.3706 3.34813C12.1893 4.22813 12.5893 5.41625 12.4956 6.69312C12.3162 9.20562 10.3831 11.25 8.18743 11.25ZM12.2912 13.2156C11.1918 12.6781 9.76493 12.4094 8.18805 12.4094C6.3468 12.4094 4.55868 12.8894 3.15243 13.7606C1.55805 14.75 0.485554 16.1906 0.0524289 17.93C-0.0109554 18.1802 -0.0169504 18.4415 0.0348923 18.6943C0.086735 18.9471 0.195073 19.185 0.351804 19.39C0.500521 19.5809 0.691044 19.7352 0.908721 19.8409C1.1264 19.9467 1.36543 20.0011 1.60743 20H8.54493C8.66202 20 8.7754 19.9589 8.86529 19.8838C8.95517 19.8088 9.01587 19.7046 9.0368 19.5894C9.04368 19.55 9.05243 19.5106 9.06243 19.4719C9.59243 17.3431 10.8343 15.5444 12.6693 14.2331C12.7368 14.1845 12.7911 14.1198 12.8272 14.0448C12.8634 13.9699 12.8803 13.8871 12.8764 13.804C12.8725 13.7209 12.8479 13.6401 12.8048 13.5689C12.7618 13.4977 12.7017 13.4383 12.6299 13.3962C12.5318 13.3387 12.4193 13.2781 12.2912 13.2156V13.2156Z" />
</svg>
